custom-analysis
version=1
nRows=5
nColumns=42
inDegrees=no

This file contains tibia displacement and acting force.

Units are S.I. units (seconds, meters, Newtons, ...)
Angles are in degrees.

endheader
time	APT	SIT	knee_angle	aACL_R_force	pACL_R_force	aPCL_R_force	pPCL_R_force	aMCL_R_force	mMCL_R_force	pMCL_R_force	aLCL_R_force	mLCL_R_force	pLCL_R_force	aACL_R_length	pACL_R_length	aPCL_R_length	pPCL_R_length	aMCL_R_length	mMCL_R_length	pMCL_R_length	aLCL_R_length	mLCL_R_length	pLCL_R_length	aACL_R_strain	pACL_R_strain	aPCL_R_strain	pPCL_R_strain	aMCL_R_strain	mMCL_R_strain	pMCL_R_strain	aLCL_R_strain	mLCL_R_strain	pLCL_R_strain	femur_lat_meniscii_force_r	femur_lat_meniscii_torque_r	femur_med_meniscii_force_r	femur_med_meniscii_torque_r	femur_lat_tibia_force_r	femur_lat_tibia_torque_r	femur_med_tibia_force_r	femur_med_tibia_torque_r
      0.74864481	      0.00187141	      0.00017768	      1.66574369	     22.71289820	     51.39990185	      0.00000000	      0.00000000	      0.00000000	      2.41024311	     13.88160529	      0.37644126	      0.00000000	      1.35853244	      0.03344391	      0.02775742	      0.02829927	      0.02878039	      0.05604615	      0.06094527	      0.06334462	      0.05640352	      0.05493567	      0.05312278	      0.05482995	      0.07342692	     -0.08991822	     -0.04345305	     -0.03413673	      0.01926238	      0.04308749	      0.00761589	     -0.02455540	      0.01490324	     78.06468962	     14.48761889	     90.77012454	     17.70104555	      0.00000000	      0.00000000	      0.00000000	      0.00000000
      0.74989787	      0.00187190	      0.00017771	      1.66574369	     22.63965340	     51.33198534	      0.00000000	      0.00000000	      0.00000000	      2.31686330	     13.78636248	      0.27677586	      0.00000000	      1.25644236	      0.03344431	      0.02775784	      0.02829889	      0.02878004	      0.05604594	      0.06094507	      0.06334446	      0.05640349	      0.05493567	      0.05312278	      0.05484240	      0.07344309	     -0.08993024	     -0.04346468	     -0.03414032	      0.01925911	      0.04308485	      0.00761545	     -0.02455540	      0.01490339	     78.09438815	     14.49382425	     90.83229313	     17.71103215	      0.00000000	      0.00000000	      0.00000000	      0.00000000
      0.75334092	      0.00187302	      0.00017845	      1.66574369	     22.52961493	     51.20511663	      0.00000000	      0.00000000	      0.00000000	      2.30421422	     13.76434186	      0.31819555	      0.00000000	      1.29330818	      0.03344428	      0.02775781	      0.02829781	      0.02877896	      0.05604494	      0.06094406	      0.06334353	      0.05640310	      0.05493533	      0.05312246	      0.05484169	      0.07344190	     -0.08996494	     -0.04350065	     -0.03415756	      0.01924220	      0.04306962	      0.00760842	     -0.02456143	      0.01489726	     78.17270786	     14.50969561	     91.03351654	     17.74221403	      0.00000000	      0.00000000	      0.00000000	      0.00000000
      0.75622837	      0.00187376	      0.00017902	      1.66574369	     22.47557953	     51.13067008	      0.00000000	      0.00000000	      0.00000000	      2.29461100	     13.74893164	      0.32821797	      0.00000000	      1.30096889	      0.03344387	      0.02775733	      0.02829734	      0.02877845	      0.05604430	      0.06094338	      0.06334291	      0.05640305	      0.05493532	      0.05312247	      0.05482869	      0.07342338	     -0.08998018	     -0.04351765	     -0.03416865	      0.01923085	      0.04305942	      0.00760755	     -0.02456161	      0.01489735	     78.21874582	     14.52140394	     91.19323353	     17.76610841	      0.00000000	      0.00000000	      0.00000000	      0.00000000
      0.76311098	      0.00187514	      0.00017959	      1.66574369	     22.38004500	     51.01406087	      0.00000000	      0.00000000	      0.00000000	      2.09382605	     13.54238877	      0.03620950	      0.00000000	      1.00457853	      0.03344333	      0.02775663	      0.02829703	      0.02877806	      0.05604355	      0.06094256	      0.06334220	      0.05640365	      0.05493601	      0.05312318	      0.05481150	      0.07339617	     -0.08999015	     -0.04353053	     -0.03418159	      0.01921706	      0.04304771	      0.00761831	     -0.02454950	      0.01491095	     78.28219740	     14.53906053	     91.43027660	     17.77856644	      0.00000000	      0.00000000	      0.00000000	      0.00000000
